<svg xmlns="http://www.w3.org/2000/svg" width="78" height="5" viewBox="0 0 78 5">
  <metadata><?xpacket begin="﻿" id="W5M0MpCehiHzreSzNTczkc9d"?>
<x:xmpmeta xmlns:x="adobe:ns:meta/" x:xmptk="Adobe XMP Core 5.6-c138 79.159824, 2016/09/14-01:09:01        ">
   <rdf:RDF xmlns:rdf="http://www.w3.org/1999/02/22-rdf-syntax-ns#">
      <rdf:Description rdf:about=""/>
   </rdf:RDF>
</x:xmpmeta>
                                                                                                    
                                                                                                    
                                                                                                    
                                                                                                    
                                                                                                    
                                                                                                    
                                                                                                    
                                                                                                    
                                                                                                    
                                                                                                    
                                                                                                    
                                                                                                    
                                                                                                    
                                                                                                    
                                                                                                    
                                                                                                    
                                                                                                    
                                                                                                    
                                                                                                    
                                                                                                    
                           
<?xpacket end="w"?></metadata>
<defs>
    <style>
      .cls-1 {
        fill: #fff;
        fill-rule: evenodd;
      }
    </style>
  </defs>
  <path class="cls-1" d="M588,274c-1.532,0-2.724-1-3.876-1.974a2.315,2.315,0,0,0-4.248,0C578.724,273,577.533,274,576,274s-2.724-1-3.876-1.974a2.315,2.315,0,0,0-4.248,0C566.724,273,565.532,274,564,274s-2.724-1-3.876-1.974a2.315,2.315,0,0,0-4.248,0C554.724,273,553.532,274,552,274s-2.724-1-3.876-1.974a2.315,2.315,0,0,0-4.248,0C542.724,273,541.532,274,540,274s-2.724-1-3.876-1.974a2.315,2.315,0,0,0-4.248,0C530.724,273,529.533,274,528,274s-2.724-1-3.876-1.974a2.315,2.315,0,0,0-4.248,0C518.724,273,517.533,274,516,274s-2.724-1-3.876-1.974A6.087,6.087,0,0,0,510,270.632V269c1.533,0,2.724,1,3.876,1.973a2.314,2.314,0,0,0,4.248,0C519.276,270,520.468,269,522,269s2.724,1,3.876,1.973a2.314,2.314,0,0,0,4.248,0C531.276,270,532.468,269,534,269s2.724,1,3.876,1.973a2.314,2.314,0,0,0,4.248,0C543.276,270,544.468,269,546,269s2.724,1,3.876,1.973a2.314,2.314,0,0,0,4.248,0C555.276,270,556.468,269,558,269s2.724,1,3.876,1.973a2.314,2.314,0,0,0,4.248,0C567.276,270,568.468,269,570,269s2.724,1,3.876,1.974a2.315,2.315,0,0,0,4.248,0C579.276,270,580.468,269,582,269s2.724,1,3.876,1.974A6.1,6.1,0,0,0,588,272.366V274Z" transform="translate(-510 -269)"/>
</svg>
