<?xml version="1.0" encoding="utf-8"?>
<!-- Generator: Adobe Illustrator 21.0.0, SVG Export Plug-In . SVG Version: 6.00 Build 0)  -->
<!DOCTYPE svg PUBLIC "-//W3C//DTD SVG 1.1//EN" "http://www.w3.org/Graphics/SVG/1.1/DTD/svg11.dtd">
<svg version="1.1" xmlns="http://www.w3.org/2000/svg" xmlns:xlink="http://www.w3.org/1999/xlink" x="0px" y="0px"
	 viewBox="0 0 23 26" enable-background="new 0 0 23 26" xml:space="preserve">
<g id="シェイプ_3_のコピー_3_1_" enable-background="new    ">
	<path fill="#FFFFFF" d="M20.4,4c-2.2-2.5-5.5-4-8.9-4C8.2,0,5.1,1.4,2.9,3.8C0.8,6.1-0.2,8.9,0,11.9C0.8,20.3,5.4,26,11.5,26
		c6.3,0,10.3-5,11.4-14.1C23.3,9.1,22.4,6.3,20.4,4z M11.5,24c-5,0-8.8-4.9-9.5-12.3C1.8,9.3,2.6,7,4.3,5.2C6.2,3.2,8.8,2,11.5,2
		c2.8,0,5.5,1.3,7.4,3.3c1.6,1.8,2.3,4.1,2.1,6.3C20,19.6,16.6,24,11.5,24z"/>
	<g>
		<path fill="#FFFFFF" d="M17.1,14.3c-0.6,0-1.1,0.6-1.1,1.4c0,0.2,0,0.4,0,0.6c0,0.4,0,1.3,0.1,1.6c0.7-0.1,2.2-1.5,2.2-2.2
			C18.2,14.9,17.7,14.3,17.1,14.3z"/>
		<path fill="#FFFFFF" d="M5.9,14.3c-0.6,0-1.1,0.6-1.1,1.4c0,0.8,1.6,2.2,2.2,2.2h0c0.1-0.2,0.1-1.1,0-1.6c0-0.2,0-0.4,0-0.6
			C7,14.9,6.5,14.3,5.9,14.3z"/>
	</g>
</g>
<g id="ALIEN_HOUSE_1_" enable-background="new    ">
</g>
</svg>
